<?xml version="1.0" standalone="no"?>
<!DOCTYPE svg PUBLIC "-//W3C//DTD SVG 20010904//EN"
 "http://www.w3.org/TR/2001/REC-SVG-20010904/DTD/svg10.dtd">
<svg version="1.0" xmlns="http://www.w3.org/2000/svg"
 width="2231.000000pt" height="2227.000000pt" viewBox="0 0 2231.000000 2227.000000"
 preserveAspectRatio="xMidYMid meet">

<g transform="translate(0.000000,2227.000000) scale(0.100000,-0.100000)"
fill="#000000" stroke="none">
<path d="M198 22246 c-76 -20 -122 -58 -155 -123 l-28 -58 0 -10930 0 -10930
29 -58 c33 -68 88 -109 167 -126 70 -15 21818 -15 21888 0 79 17 134 58 167
126 l29 58 3 5440 2 5440 -20 67 -20 68 -5446 5487 c-4521 4557 -5454 5493
-5501 5518 l-57 30 -5505 2 c-4417 1 -5515 -1 -5553 -11z m16209 -5879 l5352
-5392 1 -5232 0 -5233 -10605 0 -10605 0 0 3338 0 3337 828 -834 c505 -510
839 -839 859 -848 23 -9 84 -13 210 -13 149 0 184 3 213 18 60 29 87 117 57
184 -7 15 -497 516 -1089 1112 l-1078 1086 0 6935 0 6935 5253 0 5252 0 5352
-5393z"/>
<path d="M4260 19519 c-87 -10 -206 -47 -299 -91 -62 -30 -66 -30 -76 -12 -41
74 -107 97 -266 92 -97 -3 -121 -7 -164 -28 -40 -20 -55 -35 -74 -74 l-25 -50
-13 -975 c-12 -877 -12 -980 2 -1021 28 -85 87 -118 224 -127 158 -10 247 24
290 110 l24 49 8 586 c10 728 9 718 49 798 63 128 206 232 353 254 217 34 441
-106 492 -307 14 -54 15 -132 6 -688 -5 -365 -5 -640 0 -658 16 -57 46 -94 96
-118 42 -21 63 -24 163 -24 129 0 174 11 226 57 60 53 62 69 69 698 9 731 15
772 144 901 142 142 357 183 530 102 81 -38 172 -132 201 -208 31 -81 33 -135
22 -800 -4 -313 -4 -578 1 -600 12 -55 52 -104 106 -128 38 -18 66 -21 161
-22 105 0 120 2 173 27 51 24 61 33 82 81 l25 53 9 604 c5 354 5 647 0 705
-35 397 -288 685 -697 792 -85 22 -117 25 -257 25 -140 0 -172 -3 -260 -26
-163 -42 -295 -113 -409 -217 l-56 -51 -61 56 c-108 100 -283 186 -449 221
-89 18 -259 26 -350 14z"/>
<path d="M3990 16232 c-59 -29 -86 -110 -57 -174 18 -41 3036 -3078 3074
-3095 23 -9 84 -13 210 -13 149 0 184 3 213 18 60 29 87 117 57 184 -18 41
-3026 3068 -3064 3084 -23 10 -84 14 -215 14 -154 0 -189 -3 -218 -18z"/>
<path d="M15746 12190 c-153 -18 -337 -75 -454 -142 -29 -17 -54 -29 -55 -27
-38 71 -72 101 -136 119 -48 13 -216 13 -266 -1 -25 -7 -56 -27 -81 -54 -37
-38 -43 -52 -53 -112 -12 -81 -46 -2693 -35 -2738 24 -98 100 -145 247 -153
144 -7 237 30 276 111 21 43 22 63 29 455 l7 409 88 -53 c100 -60 160 -85 297
-122 87 -23 112 -25 295 -25 153 -1 217 3 273 16 542 125 916 539 961 1065 23
260 -51 545 -197 758 -163 240 -429 410 -747 479 -85 19 -341 27 -449 15z
m299 -485 c39 -8 106 -32 150 -54 247 -122 394 -351 395 -612 0 -117 -15 -190
-59 -284 -120 -254 -374 -425 -631 -425 -360 0 -680 322 -680 685 0 261 163
510 415 635 132 65 271 84 410 55z"/>
<path d="M7985 12169 c-263 -36 -523 -165 -710 -353 -235 -236 -360 -558 -342
-881 21 -363 205 -684 509 -887 473 -316 1118 -285 1589 76 132 102 159 162
118 270 -30 80 -115 169 -179 186 -55 15 -146 8 -189 -15 -18 -9 -60 -39 -94
-66 -73 -59 -237 -143 -322 -164 -147 -37 -303 -29 -441 25 -182 69 -350 234
-409 399 l-14 41 802 0 c880 0 884 0 957 59 84 67 107 175 76 360 -80 475
-426 830 -911 936 -86 19 -345 27 -440 14z m281 -480 c32 -5 102 -31 154 -56
79 -38 107 -59 180 -132 77 -78 160 -196 160 -228 0 -10 -123 -13 -610 -13
l-610 0 10 25 c17 44 75 128 130 188 160 175 374 254 586 216z"/>
<path d="M11900 12170 c-374 -48 -713 -266 -895 -575 -225 -382 -229 -810 -12
-1177 242 -408 723 -634 1230 -579 263 29 488 118 702 278 102 77 133 115 141
174 9 63 -10 119 -63 190 -99 132 -257 147 -388 37 -158 -131 -357 -208 -537
-208 -196 0 -419 106 -549 262 -48 58 -119 186 -119 215 0 10 157 13 798 13
687 0 806 2 857 15 129 34 176 94 183 235 13 251 -104 555 -292 758 -154 165
-393 297 -633 347 -90 19 -328 28 -423 15z m344 -501 c85 -28 201 -102 269
-172 50 -51 121 -155 145 -209 l12 -28 -615 0 -615 0 24 49 c89 176 288 335
469 377 86 19 223 12 311 -17z"/>
<path d="M3425 12102 c-91 -31 -84 61 -87 -1144 l-3 -1057 30 -31 c55 -57 80
-60 582 -60 502 0 524 2 701 65 186 67 380 196 495 331 493 578 326 1451 -343
1789 -92 46 -242 99 -329 115 -31 6 -249 10 -525 10 -417 -1 -477 -3 -521 -18z
m943 -467 c134 -32 287 -132 377 -247 111 -141 150 -264 143 -448 -7 -187 -62
-312 -198 -451 -82 -83 -177 -144 -280 -180 -59 -21 -86 -24 -302 -27 l-238
-4 0 370 c0 203 3 511 7 685 l6 317 211 0 c151 0 229 -5 274 -15z"/>
<path d="M11270 8772 c-59 -29 -86 -110 -57 -174 18 -41 3036 -3078 3074
-3095 23 -9 84 -13 210 -13 149 0 184 3 213 18 60 29 87 117 57 184 -18 41
-3026 3068 -3064 3084 -23 10 -84 14 -215 14 -154 0 -189 -3 -218 -18z"/>
<path d="M7446 4584 c-186 -34 -403 -128 -550 -238 -223 -169 -385 -436 -441
-727 -20 -105 -20 -331 0 -424 102 -481 461 -825 963 -921 107 -21 365 -23
472 -4 145 25 306 82 409 144 66 40 71 42 71 22 0 -33 42 -83 87 -106 38 -19
68 -25 144 -28 159 -7 248 31 283 120 15 36 19 149 30 1002 12 829 12 965 -1
1000 -22 64 -41 86 -96 112 -44 20 -67 24 -152 24 -55 0 -118 -5 -140 -11 -48
-13 -110 -75 -120 -118 -8 -36 -9 -37 -43 -12 -93 65 -290 142 -431 166 -107
19 -378 18 -485 -1z m396 -478 c234 -50 438 -249 503 -492 22 -79 22 -258 1
-349 -58 -247 -263 -452 -511 -511 -98 -23 -249 -21 -348 5 -233 61 -423 251
-484 481 -21 80 -23 262 -4 340 19 81 83 206 138 275 96 118 256 220 393 249
85 19 228 19 312 2z"/>
<path d="M18040 4594 c-116 -20 -157 -30 -240 -56 -118 -37 -303 -131 -392
-198 -93 -70 -213 -202 -276 -304 -117 -186 -171 -362 -179 -579 -6 -154 5
-246 44 -372 146 -467 557 -781 1083 -825 405 -35 790 92 1062 348 322 304
442 787 297 1198 -136 387 -423 643 -849 756 -108 29 -128 31 -320 34 -113 1
-216 1 -230 -2z m433 -511 c108 -38 180 -81 263 -156 65 -60 139 -162 169
-232 47 -113 60 -293 30 -420 -42 -181 -195 -367 -378 -459 -202 -102 -464
-106 -662 -10 -191 92 -332 260 -381 453 -22 90 -15 281 14 371 32 98 88 186
173 270 158 157 326 223 559 216 108 -2 137 -7 213 -33z"/>
<path d="M4190 4584 c-77 -15 -184 -50 -248 -80 l-74 -36 -15 22 c-9 12 -39
33 -67 46 -43 20 -66 24 -156 24 -58 0 -123 -5 -145 -11 -52 -15 -110 -74
-124 -127 -8 -28 -16 -358 -25 -999 -15 -1052 -16 -1016 45 -1067 51 -43 117
-58 237 -54 140 4 195 28 232 103 l25 50 7 590 c4 325 12 617 17 650 17 97 71
198 149 275 107 107 222 152 336 131 57 -10 161 -51 205 -79 18 -13 48 -17
111 -17 79 0 91 3 135 30 62 38 123 125 140 197 11 49 11 62 -5 107 -24 71
-50 96 -155 147 -150 73 -252 96 -440 99 -88 2 -171 1 -185 -1z"/>
<path d="M11025 4552 c-91 -31 -84 61 -87 -1144 l-3 -1057 30 -31 c55 -57 80
-60 582 -60 502 0 524 2 701 65 186 67 380 196 495 331 493 578 326 1451 -343
1789 -92 46 -242 99 -329 115 -31 6 -249 10 -525 10 -417 -1 -477 -3 -521 -18z
m943 -467 c134 -32 287 -132 377 -247 111 -141 150 -264 143 -448 -7 -187 -62
-312 -198 -451 -82 -83 -177 -144 -280 -180 -59 -21 -86 -24 -302 -27 l-238
-4 0 370 c0 203 3 511 7 685 l6 317 211 0 c151 0 229 -5 274 -15z"/>
<path d="M14837 4559 c-81 -19 -122 -56 -145 -129 -10 -31 -26 -850 -34 -1731
-2 -242 -2 -246 23 -295 36 -74 91 -98 231 -102 120 -4 186 11 238 54 59 50
58 31 71 1081 11 902 11 966 -5 1008 -22 55 -62 90 -128 110 -56 16 -189 19
-251 4z"/>
</g>
</svg>
